<svg viewBox="0 0 576 512" xmlns="http://www.w3.org/2000/svg"><path d="m560 128h-32a15.99954 15.99954 0 0 0 -16 16v80h-32v-48a15.99954 15.99954 0 0 0 -16-16h-48v-64h48a16.00079 16.00079 0 0 0 16-16v-32a15.99954 15.99954 0 0 0 -16-16h-32a15.99954 15.99954 0 0 0 -16 16v16h-48a15.99954 15.99954 0 0 0 -16 16v48h-128v-48a15.99954 15.99954 0 0 0 -16-16h-48v-16a15.99954 15.99954 0 0 0 -16-16h-32a15.99954 15.99954 0 0 0 -16 16v32a16.00079 16.00079 0 0 0 16 16h48v64h-48a15.99954 15.99954 0 0 0 -16 16v48h-32v-80a15.99954 15.99954 0 0 0 -16-16h-32a15.99954 15.99954 0 0 0 -16 16v128a16.00079 16.00079 0 0 0 16 16h48v80a16.00079 16.00079 0 0 0 16 16h48v80a16.00079 16.00079 0 0 0 16 16h96a16.00079 16.00079 0 0 0 16-16v-32a15.99954 15.99954 0 0 0 -16-16h-48v-32h192v32h-48a15.99954 15.99954 0 0 0 -16 16v32a16.00079 16.00079 0 0 0 16 16h96a16.00079 16.00079 0 0 0 16-16v-80h48a16.00079 16.00079 0 0 0 16-16v-80h48a16.00079 16.00079 0 0 0 16-16v-128a15.99954 15.99954 0 0 0 -16-16zm-336 192h-64v-96h64zm192 0h-64v-96h64z" opacity=".4"/><path d="m160 320h64v-96h-64zm192-96v96h64v-96z"/></svg>