<svg viewBox="0 0 448 512" xmlns="http://www.w3.org/2000/svg"><path d="m0 240v32a16 16 0 0 0 16 16h32a16 16 0 0 0 16-16v-32a16 16 0 0 0 -16-16h-32a16 16 0 0 0 -16 16zm0 96v32a16 16 0 0 0 16 16h32a16 16 0 0 0 16-16v-32a16 16 0 0 0 -16-16h-32a16 16 0 0 0 -16 16zm64 128v-32a16 16 0 0 0 -16-16h-32a16 16 0 0 0 -16 16v32a16 16 0 0 0 16 16h32a16 16 0 0 0 16-16zm-64-320v32a16 16 0 0 0 16 16h32a16 16 0 0 0 16-16v-32a16 16 0 0 0 -16-16h-32a16 16 0 0 0 -16 16zm160 320v-32a16 16 0 0 0 -16-16h-32a16 16 0 0 0 -16 16v32a16 16 0 0 0 16 16h32a16 16 0 0 0 16-16zm192 0v-32a16 16 0 0 0 -16-16h-32a16 16 0 0 0 -16 16v32a16 16 0 0 0 16 16h32a16 16 0 0 0 16-16zm-256-224v32a16 16 0 0 0 16 16h32a16 16 0 0 0 16-16v-32a16 16 0 0 0 -16-16h-32a16 16 0 0 0 -16 16zm192 0v32a16 16 0 0 0 16 16h32a16 16 0 0 0 16-16v-32a16 16 0 0 0 -16-16h-32a16 16 0 0 0 -16 16zm96 0v32a16 16 0 0 0 16 16h32a16 16 0 0 0 16-16v-32a16 16 0 0 0 -16-16h-32a16 16 0 0 0 -16 16zm0 96v32a16 16 0 0 0 16 16h32a16 16 0 0 0 16-16v-32a16 16 0 0 0 -16-16h-32a16 16 0 0 0 -16 16zm64 128v-32a16 16 0 0 0 -16-16h-32a16 16 0 0 0 -16 16v32a16 16 0 0 0 16 16h32a16 16 0 0 0 16-16zm-448-416v32a16 16 0 0 0 16 16h32a16 16 0 0 0 16-16v-32a16 16 0 0 0 -16-16h-32a16 16 0 0 0 -16 16zm96 0v32a16 16 0 0 0 16 16h32a16 16 0 0 0 16-16v-32a16 16 0 0 0 -16-16h-32a16 16 0 0 0 -16 16zm192 0v32a16 16 0 0 0 16 16h32a16 16 0 0 0 16-16v-32a16 16 0 0 0 -16-16h-32a16 16 0 0 0 -16 16zm96 0v32a16 16 0 0 0 16 16h32a16 16 0 0 0 16-16v-32a16 16 0 0 0 -16-16h-32a16 16 0 0 0 -16 16zm0 96v32a16 16 0 0 0 16 16h32a16 16 0 0 0 16-16v-32a16 16 0 0 0 -16-16h-32a16 16 0 0 0 -16 16z" opacity=".4"/><path d="m256 48v416a16 16 0 0 1 -16 16h-32a16 16 0 0 1 -16-16v-416a16 16 0 0 1 16-16h32a16 16 0 0 1 16 16z"/></svg>