<svg viewBox="0 0 448 512" xmlns="http://www.w3.org/2000/svg"><path d="m208 480h32a16 16 0 0 0 16-16v-32a16 16 0 0 0 -16-16h-32a16 16 0 0 0 -16 16v32a16 16 0 0 0 16 16zm96 0h32a16 16 0 0 0 16-16v-32a16 16 0 0 0 -16-16h-32a16 16 0 0 0 -16 16v32a16 16 0 0 0 16 16zm128-64h-32a16 16 0 0 0 -16 16v32a16 16 0 0 0 16 16h32a16 16 0 0 0 16-16v-32a16 16 0 0 0 -16-16zm-320 64h32a16 16 0 0 0 16-16v-32a16 16 0 0 0 -16-16h-32a16 16 0 0 0 -16 16v32a16 16 0 0 0 16 16zm320-160h-32a16 16 0 0 0 -16 16v32a16 16 0 0 0 16 16h32a16 16 0 0 0 16-16v-32a16 16 0 0 0 -16-16zm0-192h-32a16 16 0 0 0 -16 16v32a16 16 0 0 0 16 16h32a16 16 0 0 0 16-16v-32a16 16 0 0 0 -16-16zm-224 256h32a16 16 0 0 0 16-16v-32a16 16 0 0 0 -16-16h-32a16 16 0 0 0 -16 16v32a16 16 0 0 0 16 16zm0-192h32a16 16 0 0 0 16-16v-32a16 16 0 0 0 -16-16h-32a16 16 0 0 0 -16 16v32a16 16 0 0 0 16 16zm0-96h32a16 16 0 0 0 16-16v-32a16 16 0 0 0 -16-16h-32a16 16 0 0 0 -16 16v32a16 16 0 0 0 16 16zm96 0h32a16 16 0 0 0 16-16v-32a16 16 0 0 0 -16-16h-32a16 16 0 0 0 -16 16v32a16 16 0 0 0 16 16zm128-64h-32a16 16 0 0 0 -16 16v32a16 16 0 0 0 16 16h32a16 16 0 0 0 16-16v-32a16 16 0 0 0 -16-16zm-416 448h32a16 16 0 0 0 16-16v-32a16 16 0 0 0 -16-16h-32a16 16 0 0 0 -16 16v32a16 16 0 0 0 16 16zm0-96h32a16 16 0 0 0 16-16v-32a16 16 0 0 0 -16-16h-32a16 16 0 0 0 -16 16v32a16 16 0 0 0 16 16zm0-192h32a16 16 0 0 0 16-16v-32a16 16 0 0 0 -16-16h-32a16 16 0 0 0 -16 16v32a16 16 0 0 0 16 16zm0-96h32a16 16 0 0 0 16-16v-32a16 16 0 0 0 -16-16h-32a16 16 0 0 0 -16 16v32a16 16 0 0 0 16 16zm96 0h32a16 16 0 0 0 16-16v-32a16 16 0 0 0 -16-16h-32a16 16 0 0 0 -16 16v32a16 16 0 0 0 16 16z" opacity=".4"/><path d="m448 240v32a16 16 0 0 1 -16 16h-416a16 16 0 0 1 -16-16v-32a16 16 0 0 1 16-16h416a16 16 0 0 1 16 16z"/></svg>