<svg viewBox="0 0 496 512" xmlns="http://www.w3.org/2000/svg"><path d="m312 256a64 64 0 0 1 -28.93 53.43l-20.77 73.1c63.88-7.18 113.7-60.75 113.7-126.53a128 128 0 0 0 -128-128c-65.78 0-119.35 49.82-126.53 113.7l73.11-20.78a63.91 63.91 0 0 1 117.42 35.08zm-64-248c-136.92 0-247.89 111-247.89 248 0 8.39.44 16.67 1.26 24.85a48.57 48.57 0 0 1 18-10.08l44.84-12.77c0-.68-.1-1.33-.1-2a184 184 0 1 1 184 184c-.68 0-1.34-.09-2-.1l-12.75 44.87a48.53 48.53 0 0 1 -10 18c8.16.81 16.44 1.25 24.82 1.25 136.82-.02 247.82-111.02 247.82-248.02s-111-248-248-248z" opacity=".4"/><path d="m242.21 240.65a17.13 17.13 0 0 1 21.16 21.17l-60.86 214.18c-4.31 15.17-25.08 17-31.91 2.73l-32.88-68.47-89.15 89.15a15.51 15.51 0 0 1 -21.95 0h-.05l-22-22a15.52 15.52 0 0 1 -.05-22h.05l89.15-89.15-68.36-32.81c-14.25-6.82-12.44-27.61 2.74-31.92l214.13-60.88z"/></svg>