<svg viewBox="0 0 640 512" xmlns="http://www.w3.org/2000/svg"><path d="m448 0a160 160 0 1 0 160 160 159.99917 159.99917 0 0 0 -160-160zm96 176a96 96 0 0 1 -192 0v-128l64 64h64l64-64zm-258.96875-116.77148-39.71484-16.5586-16.5586-39.71292a5.325 5.325 0 0 0 -9.53906 0l-16.5625 39.71289-39.71094 16.5586a5.336 5.336 0 0 0 0 9.541l39.71094 16.56055 16.5625 39.71094a5.32345 5.32345 0 0 0 9.53906 0l16.5586-39.71094 39.71484-16.56055a5.336 5.336 0 0 0 0-9.541z" opacity=".4"/><path d="m291.89062 194.30273v.01172c-35.83593 5.3418-91.78906 23.25782-131.89062 83.63867v-85.95312a96.105 96.105 0 0 0 -96-96 32 32 0 0 0 0 64 32.04169 32.04169 0 0 1 32 32v256a64.06328 64.06328 0 0 0 64 64h176a15.9908 15.9908 0 0 0 16-16v-16a32.00158 32.00158 0 0 0 -32-32h-32l128-96v144a15.9908 15.9908 0 0 0 16 16h32a15.9908 15.9908 0 0 0 16-16v-179.22461a160.63434 160.63434 0 0 1 -32 3.22461c-76.5625 0-140.37891-53.85547-156.10938-125.69727zm188.10938-82.30273h-64l-64-64v128a96 96 0 0 0 192 0v-128zm-72 80a16 16 0 1 1 16-16 15.9908 15.9908 0 0 1 -16 16zm80 0a16 16 0 1 1 16-16 15.9908 15.9908 0 0 1 -16 16z"/></svg>