<svg viewBox="0 0 640 512" xmlns="http://www.w3.org/2000/svg"><path d="m624 160h-32a16 16 0 0 0 -16 16v1.81c-18.9-11-40.58-17.81-64-17.81a128.14 128.14 0 0 0 -128 128v32a128.14 128.14 0 0 0 128 128c23.42 0 45.1-6.78 64-17.81v1.81a16 16 0 0 0 16 16h32a16 16 0 0 0 16-16v-256a16 16 0 0 0 -16-16zm-64 160a48 48 0 0 1 -96 0v-32a48 48 0 0 1 96 0z" opacity=".4"/><path d="m229.88 85.69a32 32 0 0 0 -30.3-21.69h-47.16a32 32 0 0 0 -30.3 21.69l-121.27 341.2a16 16 0 0 0 15.15 21.11h50.62a16 16 0 0 0 15.16-10.89l19.07-53.11h150.3l19.07 53.11a16 16 0 0 0 15.16 10.89h50.62a16 16 0 0 0 15.16-21.11zm-100.3 218.31 46.42-129.26 46.42 129.26z"/></svg>