<svg viewBox="0 0 512 512" xmlns="http://www.w3.org/2000/svg"><path d="m152.411 380.041a184.06545 184.06545 0 0 1 -45.363-15.81639 143.563 143.563 0 0 1 -74.11661-8.61719c-13.44517-5.38867-25.26539 10.67774-16.10139 21.89458a196.56317 196.56317 0 0 0 49.18712 42.88282c48.33946 29.86718 108.28821 35.41211 161.18624 17.46484a143.15222 143.15222 0 0 0 27.0076-64.42578 194.37634 194.37634 0 0 1 -101.79996 6.61712zm-13.832-125.82811a194.34925 194.34925 0 0 1 -6.61713-101.80273 184.10142 184.10142 0 0 1 15.81237-45.36133 143.64822 143.64822 0 0 1 8.61712-74.11914c5.39064-13.44141-10.67956-25.26758-21.89436-16.10547a196.41386 196.41386 0 0 0 -42.87853 49.18945c-29.86695 48.3418-35.41379 108.28906-17.46861 161.1875a143.19192 143.19192 0 0 0 64.42914 27.01172zm234.842 3.57422a194.34925 194.34925 0 0 1 6.61713 101.80273 184.10142 184.10142 0 0 1 -15.81237 45.36133 143.64822 143.64822 0 0 1 -8.61712 74.11914c-5.39058 13.44141 10.6796 25.26758 21.89436 16.10547a196.48243 196.48243 0 0 0 42.87857-49.18945c29.86695-48.3418 35.41379-108.28906 17.46861-161.1875a143.19192 143.19192 0 0 0 -64.42918-27.01172zm121.749-123.28906a196.53038 196.53038 0 0 0 -49.18712-42.88477c-48.33945-29.86523-108.2882-35.41016-161.18623-17.46484a143.15047 143.15047 0 0 0 -27.0076 64.42773 194.37634 194.37634 0 0 1 101.8-6.61719 184.11687 184.11687 0 0 1 45.36295 15.81446 143.563 143.563 0 0 1 74.11661 8.61718c13.44517 5.39063 25.26539-10.67773 16.10139-21.89257z" opacity=".4"/><path d="m506.57617 274.10352c-16.79674-71.10547-75.33926-127.8379-146.98717-142.14452a194.37634 194.37634 0 0 0 -101.8 6.61719 143.72851 143.72851 0 0 1 85.5111-110.74419c13.3163-5.69531 10.31633-25.418-4.09372-26.86914a196.57346 196.57346 0 0 0 -65.105 4.459c-71.101 16.79687-127.83494 75.33984-142.13951 146.98828a194.34925 194.34925 0 0 0 6.61713 101.80275 143.73791 143.73791 0 0 1 -110.74519-85.51367c-5.69527-13.31445-25.41781-10.31641-26.87088 4.09378a196.51667 196.51667 0 0 0 4.4609 65.10351c16.79674 71.10549 75.33926 127.83787 146.98717 142.14449a194.37634 194.37634 0 0 0 101.8-6.61719 143.72851 143.72851 0 0 1 -85.5111 110.74419c-13.3163 5.69531-10.31633 25.418 4.09372 26.86914a196.57346 196.57346 0 0 0 65.105-4.459c71.101-16.79687 127.83494-75.33984 142.13951-146.98828a194.34925 194.34925 0 0 0 -6.61713-101.80275 143.73791 143.73791 0 0 1 110.74523 85.51367c5.69527 13.31445 25.41777 10.31641 26.87088-4.09375a196.51667 196.51667 0 0 0 -4.46094-65.10351zm-250.57617 29.89648a48 48 0 1 1 47.99963-48 48.00094 48.00094 0 0 1 -47.99963 48z"/></svg>