<svg viewBox="0 0 384 512" xmlns="http://www.w3.org/2000/svg"><path d="m284.92 384h-185.86a187.69 187.69 0 0 0 -11.06 64h208a187.6 187.6 0 0 0 -11.08-64zm-92.92-176c40.83 0 75.86-33.2 92.92-80h-185.84c17.06 46.8 52.1 80 92.92 80z" opacity=".4"/><path d="m360 64a24 24 0 0 0 24-24v-16a24 24 0 0 0 -24-24h-336a24 24 0 0 0 -24 24v16a24 24 0 0 0 24 24c0 91 51 167.73 120.84 192-69.84 24.27-120.84 101-120.84 192a24 24 0 0 0 -24 24v16a24 24 0 0 0 24 24h336a24 24 0 0 0 24-24v-16a24 24 0 0 0 -24-24c0-91-51-167.73-120.84-192 69.84-24.27 120.84-101 120.84-192zm-64 384h-208c0-77.46 46.2-144 104-144s104 66.52 104 144zm-104-240c-57.79 0-104-66.52-104-144h208c0 77.46-46.2 144-104 144z"/></svg>