<svg viewBox="0 0 576 512" xmlns="http://www.w3.org/2000/svg"><path d="m424.49 120.48a12 12 0 0 0 -17 0l-135.49 135.52-39.51-39.52a12 12 0 0 0 -17 0l-55.49 55.52v48h352v-112zm-360.49 215.52v-208h-16a48 48 0 0 0 -48 48v256a48 48 0 0 0 48 48h384a48 48 0 0 0 48-48v-16h-336a80.09 80.09 0 0 1 -80-80z" opacity=".4"/><path d="m528 32h-384a48 48 0 0 0 -48 48v256a48 48 0 0 0 48 48h384a48 48 0 0 0 48-48v-256a48 48 0 0 0 -48-48zm-320 48a48 48 0 1 1 -48 48 48 48 0 0 1 48-48zm304 240h-352v-48l55.52-55.52a12 12 0 0 1 17 0l39.48 39.52 135.52-135.52a12 12 0 0 1 17 0l87.48 87.52z"/></svg>