<svg viewBox="0 0 512 512" xmlns="http://www.w3.org/2000/svg"><path d="m12.41 236.31 58.1-26.31 161.63 73.27a57.64 57.64 0 0 0 47.72 0l161.64-73.27 58.09 26.33c16.55 7.5 16.55 32.5 0 40l-232.95 105.57a25.68 25.68 0 0 1 -21.29 0l-232.94-105.59c-16.55-7.5-16.55-32.5 0-40z" opacity=".4"/><path d="m12.41 148 232.94 105.7a25.61 25.61 0 0 0 21.29 0l232.94-105.7c16.55-7.51 16.55-32.52 0-40l-232.93-105.68a25.61 25.61 0 0 0 -21.29 0l-232.95 105.68c-16.55 7.5-16.55 32.52 0 40zm487.18 216.11-57.87-26.23-161.86 73.37a57.64 57.64 0 0 1 -47.72 0l-161.85-73.37-57.88 26.23c-16.55 7.5-16.55 32.5 0 40l232.94 105.59a25.68 25.68 0 0 0 21.29 0l233-105.59c16.5-7.5 16.5-32.5-.05-40z"/></svg>