<svg viewBox="0 0 512 512" xmlns="http://www.w3.org/2000/svg"><path d="m476.1 20h-104a36 36 0 0 0 -36 36v80a12 12 0 0 0 12 12h152a11.89 11.89 0 0 0 12-11.9v-80.1a36 36 0 0 0 -36-36zm-336.1.1h-104a36 36 0 0 0 -36 36v80a12 12 0 0 0 12 12h152.1a11.89 11.89 0 0 0 11.9-12v-80a36 36 0 0 0 -36-36z" opacity=".4"/><path d="m512 192.2c-.2 20.2-.6 40.4 0 53.2 0 150.7-134.5 246.7-255.1 246.7s-256.8-96-256.8-246.6c.6-13 .1-31.9 0-53.3a12 12 0 0 1 12-12.1h152a12 12 0 0 1 12 12v52c0 127.9 160 128.1 160 0v-52a12 12 0 0 1 12-12h151.9a12 12 0 0 1 12 12.1z"/></svg>