<svg viewBox="0 0 384 512" xmlns="http://www.w3.org/2000/svg"><path d="m208 200a8.00039 8.00039 0 0 0 8 8h24v-32h-32zm80 0v-24h-32v32h24a8.00039 8.00039 0 0 0 8-8zm-80-40h32v-32h-24a8.00039 8.00039 0 0 0 -8 8zm80-24a8.00039 8.00039 0 0 0 -8-8h-24v32h32zm-184 72h24v-32h-32v24a8.00039 8.00039 0 0 0 8 8zm24-80h-24a8.00039 8.00039 0 0 0 -8 8v24h32zm48 72v-24h-32v32h24a8.00039 8.00039 0 0 0 8-8zm0-64a8.00039 8.00039 0 0 0 -8-8h-24v32h32zm32-120a16 16 0 0 0 -32 0v16h32zm160 448h-352a15.99954 15.99954 0 0 0 -16 16v16a16.00079 16.00079 0 0 0 16 16h352a16.00079 16.00079 0 0 0 16-16v-16a15.99954 15.99954 0 0 0 -16-16z" opacity=".4"/><path d="m352 464v-376a23.99993 23.99993 0 0 0 -24-24h-8.02344v-16a15.99954 15.99954 0 0 0 -16-16h-223.97656a15.99954 15.99954 0 0 0 -16 16v16h-8a23.99993 23.99993 0 0 0 -24 24v376zm-256-328a8.00039 8.00039 0 0 1 8-8h24v32h-32zm0 40h32v32h-24a8.00039 8.00039 0 0 1 -8-8zm80 136a8.00039 8.00039 0 0 1 -8 8h-64a8.00039 8.00039 0 0 1 -8-8v-64a8.00039 8.00039 0 0 1 8-8h64a8.00039 8.00039 0 0 1 8 8zm0-112a8.00039 8.00039 0 0 1 -8 8h-24v-32h32zm0-40h-32v-32h24a8.00039 8.00039 0 0 1 8 8zm64 48h-24a8.00039 8.00039 0 0 1 -8-8v-24h32zm0-48h-32v-24a8.00039 8.00039 0 0 1 8-8h24zm48 40a8.00039 8.00039 0 0 1 -8 8h-24v-32h32zm0-40h-32v-32h24a8.00039 8.00039 0 0 1 8 8z"/></svg>