<svg viewBox="0 0 512 512" xmlns="http://www.w3.org/2000/svg"><path d="m35.67945 352.06641c-25.85156 25.85351-38.6289 90.52734-35.10156 159.34375 69.10156 3.55859 133.58984-9.35157 159.33984-35.10547 40.28516-40.2793 42.8711-93.98633 6.3086-130.54883-36.5586-36.55859-90.26563-33.9707-130.54688 6.31055zm94.957 81.05468c-10.73046 10.73243-37.60546 16.11133-66.40234 14.627-1.46484-28.67383 3.85938-55.623 14.63281-66.39649 16.78125-16.78515 39.16407-17.86328 54.39844-2.6289 15.2305 15.2363 14.15628 37.61519-2.62888 54.39839zm-78.69528-278.63671-49.41017 98.8125a28.125 28.125 0 0 0 -2.53123 10.70312 24.00619 24.00619 0 0 0 24 24h93.46093c23.44141-47.41211 61.01172-123.373 77.89063-157.32812.51953-.91407 1-1.76758 1.52344-2.67188h-102.05469c-16.34375.01562-35.53125 11.875-42.87891 26.48438zm329.39453 162.08789c-33.96093 17.00781-110.0625 54.67968-157.33593 78.07421v93.56252a24.12394 24.12394 0 0 0 23.96093 23.791 28.02965 28.02965 0 0 0 10.625-2.53125l98.72657-49.39063c14.625-7.3125 26.5-26.5 26.5-42.85937v-101.51563c.0664-.041.125-.08789.1875-.1289v-.52734c-.90625.51953-1.7461 1.00195-2.66407 1.52539z" opacity=".4"/><path d="m505.15992 19.51562a16.73971 16.73971 0 0 0 -12.53515-12.57031c-32.39844-6.94531-58.25-6.94531-83.14063-6.94531-89.14844 0-156.67578 40.61523-212.50781 127.81836-.5586.97852-1.07031 1.877-1.625 2.85352-16.87891 33.95512-54.44922 109.91601-77.89063 157.32812h10.53907a95.99975 95.99975 0 0 1 96 96v10.64648c47.27343-23.39453 123.375-61.0664 157.33593-78.07421.96094-.54883 1.832-1.04883 2.78907-1.59766 87.23437-56.06055 127.85937-123.51172 127.85937-212.27734.07813-25.08985.14453-50.60938-6.82422-83.18165zm-137.16015 172.48438a48 48 0 1 1 48-48.00195 48.02156 48.02156 0 0 1 -48 48.00195zm-289.13277 189.35156c-10.77348 10.77344-16.0977 37.72266-14.63286 66.39649 28.79688 1.48437 55.67188-3.89453 66.40234-14.627 16.78516-16.7832 17.85938-39.16211 2.62891-54.39843-15.23439-15.23434-37.61719-14.15621-54.39839 2.62894z"/></svg>