<svg viewBox="0 0 512 512" xmlns="http://www.w3.org/2000/svg"><path d="m108.92 355.08a48 48 0 1 0 48 48 48 48 0 0 0 -48-48zm147.08 60.92a48 48 0 1 0 48 48 48 48 0 0 0 -48-48zm208-208a48 48 0 1 0 48 48 48 48 0 0 0 -48-48zm-60.92 147.08a48 48 0 1 0 48 48 48 48 0 0 0 -48-48zm0-198.16a48 48 0 1 0 -48-48 48 48 0 0 0 48 48z" opacity=".4"/><path d="m108.92 60.92a48 48 0 1 0 48 48 48 48 0 0 0 -48-48zm-60.92 147.08a48 48 0 1 0 48 48 48 48 0 0 0 -48-48zm208-208a48 48 0 1 0 48 48 48 48 0 0 0 -48-48z"/></svg>