<svg viewBox="0 0 512 512" xmlns="http://www.w3.org/2000/svg"><path d="m456.71 370.69-27.83-15.9a15.92 15.92 0 0 1 -6.94-19.2 184 184 0 1 1 -165.94-263.59c5.89 0 11.71.29 17.46.83-.74-.07-1.48-.15-2.23-.21-8.49-.69-15.23-7.31-15.23-15.83v-32a16 16 0 0 1 15.34-16c-5.1-.33-10.16-.79-15.34-.79-137 0-248 111-248 248s111 248 248 248c98 0 182.42-56.95 222.71-139.42-4.13 7.86-14.23 10.55-22 6.11z" opacity=".4"/><path d="m271.23 72.62c-8.49-.69-15.23-7.31-15.23-15.83v-32.06c0-9.11 7.67-16.78 16.77-16.17 129.15 8.62 231.23 116.11 231.23 247.44a246 246 0 0 1 -25 108.24c-4 8.17-14.37 11-22.26 6.45l-27.84-15.9c-7.41-4.23-9.83-13.35-6.2-21.07a182.53 182.53 0 0 0 17.3-77.72c0-96.49-74.27-175.63-168.77-183.38z"/></svg>