<svg viewBox="0 0 640 512" xmlns="http://www.w3.org/2000/svg"><path d="m496 240c0 3.14648-.30469 6.21484-.46875 9.32227-53.58594 24.33789-112.73437 38.67773-175.53125 38.67773s-121.94531-14.33984-175.53125-38.67773c-.16406-3.10743-.46875-6.17579-.46875-9.32227a176 176 0 0 1 352 0z" opacity=".4"/><path d="m493.65234 212.582a176.66471 176.66471 0 0 1 2.34766 27.418c0 3.14648-.30469 6.21484-.46875 9.32227-53.58594 24.33789-112.73437 38.67773-175.53125 38.67773s-121.94531-14.33984-175.53125-38.67773c-.16406-3.10743-.46875-6.17579-.46875-9.32227a176.66471 176.66471 0 0 1 2.34766-27.418c-87.99219 22.80862-146.34766 62.35355-146.34766 107.418 0 70.69141 143.26953 128 320 128s320-57.30859 320-128c0-45.06445-58.35547-84.60938-146.34766-107.418zm-365.65234 147.418a24 24 0 1 1 24-24 24.00118 24.00118 0 0 1 -24 24zm192 32a24 24 0 1 1 24-24 24.00118 24.00118 0 0 1 -24 24zm192-32a24 24 0 1 1 24-24 24.00118 24.00118 0 0 1 -24 24z"/></svg>