<svg viewBox="0 0 256 512" xmlns="http://www.w3.org/2000/svg"><path d="m160 406.186v-300.371l43.728 46.208c9.289 9.815 24.846 10.03 34.402.474l10.84-10.84c9.373-9.373 9.373-24.569 0-33.941l-98.343-98.343c-12.497-12.497-32.758-12.497-45.255 0l-98.343 98.342c-9.373 9.373-9.373 24.569 0 33.941l10.84 10.84c9.556 9.556 25.113 9.341 34.402-.474l43.729-46.207v300.371l-43.728-46.208c-9.289-9.815-24.846-10.03-34.402-.474l-10.84 10.84c-9.373 9.373-9.373 24.569 0 33.941l98.343 98.343c12.497 12.497 32.758 12.497 45.255 0l98.343-98.343c9.373-9.373 9.373-24.569 0-33.941l-10.84-10.84c-9.556-9.556-25.113-9.341-34.402.474z"/></svg>