<svg viewBox="0 0 640 512" xmlns="http://www.w3.org/2000/svg"><path d="m112 192a24 24 0 0 0 -24-24h-64a24 24 0 0 0 0 48h64a24 24 0 0 0 24-24zm-60.34-127.22 55.42 32a24 24 0 1 0 24-41.56l-55.42-32a24 24 0 1 0 -24 41.56zm469.28 35.22a23.8 23.8 0 0 0 12-3.22l55.42-32a24 24 0 0 0 -24-41.56l-55.42 32a24 24 0 0 0 12 44.78zm-200.94 412a64 64 0 0 0 64-64h-128a64 64 0 0 0 64 64zm296-344h-64a24 24 0 0 0 0 48h64a24 24 0 0 0 0-48zm-136.08 40c0-77.69-54.48-139.91-127.94-155.16v-20.84a32 32 0 1 0 -64 0v20.84c-73.42 15.25-127.9 77.47-127.9 155.16 0 102.31-36.14 133.53-55.47 154.28a31.28 31.28 0 0 0 -8.61 21.72c.11 16.41 13 32 32.09 32h383.82c19.11 0 32-15.59 32.09-32a31.23 31.23 0 0 0 -8.61-21.72c-19.33-20.75-55.47-51.97-55.47-154.28z"/></svg>