<svg viewBox="0 0 448 512" xmlns="http://www.w3.org/2000/svg"><path d="m208 288h32a16 16 0 0 0 16-16v-32a16 16 0 0 0 -16-16h-32a16 16 0 0 0 -16 16v32a16 16 0 0 0 16 16zm96 0h32a16 16 0 0 0 16-16v-32a16 16 0 0 0 -16-16h-32a16 16 0 0 0 -16 16v32a16 16 0 0 0 16 16zm-192 0h32a16 16 0 0 0 16-16v-32a16 16 0 0 0 -16-16h-32a16 16 0 0 0 -16 16v32a16 16 0 0 0 16 16zm96 96h32a16 16 0 0 0 16-16v-32a16 16 0 0 0 -16-16h-32a16 16 0 0 0 -16 16v32a16 16 0 0 0 16 16zm0-192h32a16 16 0 0 0 16-16v-32a16 16 0 0 0 -16-16h-32a16 16 0 0 0 -16 16v32a16 16 0 0 0 16 16zm208-160h-384a32 32 0 0 0 -32 32v384a32 32 0 0 0 32 32h384a32 32 0 0 0 32-32v-384a32 32 0 0 0 -32-32zm-32 384h-320v-320h320z"/></svg>