<svg viewBox="0 0 512 512" xmlns="http://www.w3.org/2000/svg"><path d="m480 0h-448c-17.67 0-32 14.33-32 32v192h512v-192c0-17.67-14.33-32-32-32zm-128 152c0 4.42-3.58 8-8 8h-16c-4.42 0-8-3.58-8-8v-24h-128v24c0 4.42-3.58 8-8 8h-16c-4.42 0-8-3.58-8-8v-40c0-8.84 7.16-16 16-16h160c8.84 0 16 7.16 16 16zm-352 328c0 17.67 14.33 32 32 32h448c17.67 0 32-14.33 32-32v-224h-512zm160-112c0-8.84 7.16-16 16-16h160c8.84 0 16 7.16 16 16v40c0 4.42-3.58 8-8 8h-16c-4.42 0-8-3.58-8-8v-24h-128v24c0 4.42-3.58 8-8 8h-16c-4.42 0-8-3.58-8-8z"/></svg>