<svg viewBox="0 0 640 512" xmlns="http://www.w3.org/2000/svg"><path d="m288 320c0-65.45 39.59-121.68 96-146.44v-13.56h-136a24.07 24.07 0 0 1 -24-24v-136h-200a23.94 23.94 0 0 0 -24 24v464a23.94 23.94 0 0 0 24 24h336a23.94 23.94 0 0 0 24-24v-21.56c-56.41-24.75-96-80.99-96-146.44zm96-198.1a23.92 23.92 0 0 0 -7-16.9l-97.9-98a24 24 0 0 0 -17-7h-6.1v128h128zm251.31 340.16-77.41-77.41a126.69 126.69 0 0 0 18.1-64.65 128 128 0 1 0 -128 128c23.7 0 45.61-6.88 64.65-18.11l77.41 77.42a16 16 0 0 0 22.63 0l22.62-22.62a16 16 0 0 0 0-22.63zm-187.31-78.06a64 64 0 1 1 64-64 64 64 0 0 1 -64 64z"/></svg>