<svg viewBox="0 0 512 512" xmlns="http://www.w3.org/2000/svg"><path d="m12.41 276.3 232.94 105.59c6.8 3.08 14.49 3.08 21.29 0l232.95-105.59c16.55-7.5 16.55-32.5 0-40l-232.94-105.58a25.682 25.682 0 0 0 -21.29 0l-232.95 105.58c-16.55 7.5-16.55 32.5 0 40zm291.59-212.3h192c8.84 0 16-7.16 16-16v-32c0-8.84-7.16-16-16-16h-192c-8.84 0-16 7.16-16 16v32c0 8.84 7.16 16 16 16zm195.59 300.1-58.09-26.33-161.63 73.27c-7.56 3.43-15.59 5.17-23.86 5.17s-16.29-1.74-23.86-5.17l-161.64-73.27-58.1 26.33c-16.55 7.5-16.55 32.5 0 40l232.94 105.59c6.8 3.08 14.49 3.08 21.29 0l232.95-105.59c16.55-7.5 16.55-32.5 0-40z"/></svg>