<svg viewBox="0 0 640 512" xmlns="http://www.w3.org/2000/svg"><path d="m240.06 454.34a32 32 0 0 0 5.36 17.66l17.1 25.69c5.23 7.91 17.17 14.28 26.64 14.28h61.7c9.47 0 21.41-6.37 26.64-14.28l17.09-25.69a37.47 37.47 0 0 0 5.41-17.66v-38.34h-160zm79.39-454.34c-102.01.31-175.45 83-175.45 176a175 175 0 0 0 43.56 115.78c16.52 18.85 42.36 58.22 52.21 91.44 0 .28.07.53.11.78h160.24c0-.25.07-.5.11-.78 9.85-33.22 35.69-72.59 52.21-91.44a175 175 0 0 0 43.56-115.78c0-97.37-79.09-176.31-176.55-176zm.55 96a80.09 80.09 0 0 0 -80 80 16 16 0 0 1 -32 0 112.12 112.12 0 0 1 112-112 16 16 0 0 1 0 32zm-208 96a24 24 0 0 0 -24-24h-64a24 24 0 0 0 0 48h64a24 24 0 0 0 24-24zm504-24h-64a24 24 0 0 0 0 48h64a24 24 0 0 0 0-48zm-484.92-112.78-55.42-32a24 24 0 1 0 -24 41.56l55.42 32a24 24 0 1 0 24-41.56zm457.26 264-55.42-32a24 24 0 1 0 -24 41.56l55.42 32a24 24 0 0 0 24-41.56zm-481.26-32-55.42 32a24 24 0 1 0 24 41.56l55.42-32a24 24 0 0 0 -24-41.56zm413.86-187.22a23.8 23.8 0 0 0 12-3.22l55.42-32a24 24 0 0 0 -24-41.56l-55.42 32a24 24 0 0 0 12 44.78z"/></svg>