<svg viewBox="0 0 448 512" xmlns="http://www.w3.org/2000/svg"><path d="m432 0h-416a16 16 0 0 0 -16 16v32a16 16 0 0 0 16 16h416a16 16 0 0 0 16-16v-32a16 16 0 0 0 -16-16zm-199.81 128h-16.38a167.81 167.81 0 0 0 -167.81 167.81v48.38a167.81 167.81 0 0 0 167.81 167.81h16.38a167.81 167.81 0 0 0 167.81-167.81v-48.38a167.81 167.81 0 0 0 -167.81-167.81zm87.81 216.19a87.91 87.91 0 0 1 -87.81 87.81h-16.38a87.91 87.91 0 0 1 -87.81-87.81v-48.38a87.91 87.91 0 0 1 87.81-87.81h16.38a87.91 87.91 0 0 1 87.81 87.81z"/></svg>