<svg viewBox="0 0 512 512" xmlns="http://www.w3.org/2000/svg"><path d="m493.544 181.463c11.956 22.605 18.655 48.4 18.452 75.75-.657 88.152-73.436 158.787-161.592 158.787h-158.404v47.495c0 22.475-26.177 32.268-40.971 17.475l-80-80c-9.372-9.373-9.372-24.569 0-33.941l80-80c15.109-15.109 40.971-4.343 40.971 16.971v48h158.875c52.812 0 96.575-42.182 97.12-94.992.155-15.045-3.17-29.312-9.218-42.046-4.362-9.185-2.421-20.124 4.8-27.284 4.745-4.706 8.641-8.555 11.876-11.786 11.368-11.352 30.579-8.631 38.091 5.571zm-429.539 73.529c.545-52.81 44.308-94.992 97.12-94.992h158.875v47.505c0 22.374 26.121 32.312 40.971 17.465l80-80c9.372-9.373 9.372-24.569 0-33.941l-80-80c-14.957-14.952-40.971-4.773-40.971 17.516v47.455h-158.404c-88.156 0-160.935 70.635-161.591 158.788-.204 27.35 6.495 53.145 18.452 75.75 7.512 14.202 26.723 16.923 38.091 5.57 3.235-3.231 7.13-7.08 11.876-11.786 7.22-7.16 9.162-18.098 4.8-27.284-6.049-12.735-9.374-27.001-9.219-42.046z"/></svg>