<svg viewBox="0 0 448 512" xmlns="http://www.w3.org/2000/svg"><path d="m400 32h-352c-26.5 0-48 21.5-48 48v352c0 26.5 21.5 48 48 48h352c26.5 0 48-21.5 48-48v-352c0-26.5-21.5-48-48-48zm-16 324c0 6.6-5.4 12-12 12h-52v24c0 13.3-10.7 24-24 24h-16c-13.3 0-24-10.7-24-24v-24h-180c-6.6 0-12-5.4-12-12v-40c0-6.6 5.4-12 12-12h180v-24c0-13.3 10.7-24 24-24h16c13.3 0 24 10.7 24 24v24h52c6.6 0 12 5.4 12 12zm0-160c0 6.6-5.4 12-12 12h-180v24c0 13.3-10.7 24-24 24h-16c-13.3 0-24-10.7-24-24v-24h-52c-6.6 0-12-5.4-12-12v-40c0-6.6 5.4-12 12-12h52v-24c0-13.3 10.7-24 24-24h16c13.3 0 24 10.7 24 24v24h180c6.6 0 12 5.4 12 12z"/></svg>