<svg viewBox="0 0 512 512" xmlns="http://www.w3.org/2000/svg"><path d="m259.69042 85.96457 49.64549 20.69969 20.70353 49.643a6.65746 6.65746 0 0 0 11.926 0l20.70156-49.643 49.64549-20.69969a6.66574 6.66574 0 0 0 0-11.92493l-49.64549-20.70164-20.70155-49.641a6.65746 6.65746 0 0 0 -11.926 0l-20.70354 49.641-49.64549 20.70164a6.66574 6.66574 0 0 0 0 11.92493zm104.60358 181.32886-104.7989-15.29579-46.90716-95.19633c-8.39078-16.99879-32.68813-17.2019-41.18829 0l-46.90716 95.19633-104.79891 15.29579c-18.79724 2.70293-26.40676 25.9044-12.70337 39.20033l75.90772 73.99472-18.00035 104.58628c-3.20319 18.9049 16.68782 33.107 33.29752 24.2014l93.7987-49.3871 93.79869 49.3871a22.95361 22.95361 0 0 0 33.29751-24.2014l-17.891-104.58628 75.89209-73.99472c13.60968-13.29593 6.00016-36.4974-12.79709-39.20033zm144.75868-48.06493-39.71368-16.55741-16.5589-39.71009a5.32691 5.32691 0 0 0 -9.5412 0l-16.5609 39.71009-39.7117 16.55741a5.33385 5.33385 0 0 0 0 9.54033l39.7117 16.55937 16.56087 39.7081a5.32534 5.32534 0 0 0 9.5412 0l16.55893-39.7081 39.71366-16.55937a5.33386 5.33386 0 0 0 0-9.54033z"/></svg>