<svg viewBox="0 0 576 512" xmlns="http://www.w3.org/2000/svg"><path d="m288 32c-159.06 0-288 128.94-288 288 0 52.8 14.25 102.26 39.06 144.8 5.61 9.62 16.3 15.2 27.44 15.2h443c11.14 0 21.83-5.58 27.44-15.2 24.81-42.54 39.06-92 39.06-144.8 0-159.06-128.94-288-288-288zm0 64c17.67 0 32 14.33 32 32s-14.33 32-32 32-32-14.33-32-32 14.33-32 32-32zm-192 288c-17.67 0-32-14.33-32-32s14.33-32 32-32 32 14.33 32 32-14.33 32-32 32zm48-160c-17.67 0-32-14.33-32-32s14.33-32 32-32 32 14.33 32 32-14.33 32-32 32zm199.12 192h-110.24c-5.5-9.45-8.88-20.28-8.88-32 0-35.35 28.65-64 64-64 5.65 0 11.02.96 16.24 2.34l108.56-144.75c7.98-10.56 23-12.72 33.61-4.8 10.59 7.95 12.75 23 4.8 33.61l-108.56 144.74c5.81 9.63 9.35 20.79 9.35 32.86 0 11.72-3.38 22.55-8.88 32zm136.88-32c-17.67 0-32-14.33-32-32s14.33-32 32-32 32 14.33 32 32-14.33 32-32 32z"/></svg>