<svg viewBox="0 0 640 512" xmlns="http://www.w3.org/2000/svg"><path d="m624 32h-352a16 16 0 0 0 -16 16v96a16 16 0 0 0 16 16h32a16 16 0 0 0 16-16v-32h88v304h-40a16 16 0 0 0 -16 16v32a16 16 0 0 0 16 16h160a16 16 0 0 0 16-16v-32a16 16 0 0 0 -16-16h-40v-304h88v32a16 16 0 0 0 16 16h32a16 16 0 0 0 16-16v-96a16 16 0 0 0 -16-16zm-320 192h-288a16 16 0 0 0 -16 16v64a16 16 0 0 0 16 16h32a16 16 0 0 0 16-16v-16h56v128h-24a16 16 0 0 0 -16 16v32a16 16 0 0 0 16 16h128a16 16 0 0 0 16-16v-32a16 16 0 0 0 -16-16h-24v-128h56v16a16 16 0 0 0 16 16h32a16 16 0 0 0 16-16v-64a16 16 0 0 0 -16-16z"/></svg>