<svg xmlns="http://www.w3.org/2000/svg" xmlns:xlink="http://www.w3.org/1999/xlink" style="" version="1.1" xml:space="preserve" width="30" height="30"><rect id="backgroundrect" width="100%" height="100%" x="0" y="0" fill="none" stroke="none"/><g class="currentLayer" style=""><title>Layer 1</title><path d="M26.128205120563507,9.128205120563507 H4.128205120563507 c-1.105,0 -2,0.8950000000000001 -2,2 v9 c0,1.105 0.8950000000000001,2 2,2 h3 v-8 h16 v8 h3 c1.105,0 2,-0.8950000000000001 2,-2 v-9 C28.128205120563507,10.023205120563507 27.233205120563508,9.128205120563507 26.128205120563507,9.128205120563507 z" id="svg_1" class="" fill="#ffffff" fill-opacity="1"/><rect height="12" style="fill: none; stroke-width: 2; stroke-miterlimit: 10;" width="16" x="7.2564104199409485" y="14.256410419940948" id="svg_2" class="" stroke="#ffffff" stroke-opacity="1"/><path d="M24,7H6V5c0-0.552,0.448-1,1-1h16c0.552,0,1,0.448,1,1V7z" id="svg_3" class="" fill="#ffffff" fill-opacity="1"/></g></svg>