<svg viewBox="0 0 496 512" xmlns="http://www.w3.org/2000/svg"><path d="m242.16 240.67-214.18 60.88c-15.17 4.31-16.95 25.1-2.73 31.92l68.47 32.89-89.17 89.17c-6.07 6.06-6.07 15.9 0 21.96l21.96 21.96c6.07 6.06 15.9 6.06 21.96 0l89.17-89.17 32.89 68.47c6.83 14.22 27.61 12.44 31.92-2.73l60.87-214.18c3.68-12.91-8.25-24.83-21.16-21.17zm27.36 117.03-14.08 49.55c80.48-3.95 144.56-69.79 144.56-151.25 0-84.02-68-152-152-152-81.47 0-147.3 64.1-151.25 144.57l49.55-14.08c9.95-47.05 51.74-82.49 101.7-82.49 57.35 0 104 46.65 104 104 0 49.96-35.44 91.75-82.48 101.7zm-21.52-349.7c-136.97 0-248 111.03-248 248 0 7.3.47 14.49 1.09 21.63 3.46-1.97 7-3.87 10.99-5l36.24-10.3c-.07-2.12-.32-4.19-.32-6.33 0-110.28 89.72-200 200-200s200 89.72 200 200-89.72 200-200 200c-2.14 0-4.21-.25-6.33-.32l-10.3 36.24c-1.14 4.02-3.15 7.5-5.14 10.98 7.19.63 14.42 1.1 21.77 1.1 136.97 0 248-111.03 248-248s-111.03-248-248-248z"/></svg>