<svg viewBox="0 0 512 512" xmlns="http://www.w3.org/2000/svg"><path d="m497.94 76.28-62.22-62.22c-9.38-9.37-21.66-14.06-33.94-14.06-12.29 0-24.57 4.69-33.94 14.06l-353.78 353.78c-18.75 18.75-18.75 49.14 0 67.88l62.22 62.22c9.37 9.37 21.66 14.06 33.94 14.06s24.57-4.69 33.94-14.06l353.77-353.78c18.76-18.74 18.76-49.13.01-67.88zm-387.71 387.72-62.23-62.22 223.9-223.93 62.24 62.24zm257.85-257.86-62.24-62.24 95.89-95.9h.05l62.22 62.22zm63.92 81.86-26.66 53.33-53.34 26.67 53.34 26.67 26.66 53.33 26.66-53.33 53.34-26.67-53.34-26.67zm-208-192 16-32 32-16-32-16-16-32-16 32-32 16 32 16zm-144 64 26.66-53.33 53.34-26.67-53.34-26.67-26.66-53.33-26.66 53.33-53.34 26.67 53.34 26.67z"/></svg>