<svg viewBox="0 0 512 512" xmlns="http://www.w3.org/2000/svg"><path d="m480 160c17.67 0 32-14.33 32-32v-96c0-17.67-14.33-32-32-32h-96c-17.67 0-32 14.33-32 32v16h-192v-16c0-17.67-14.33-32-32-32h-96c-17.67 0-32 14.33-32 32v96c0 17.67 14.33 32 32 32h16v192h-16c-17.67 0-32 14.33-32 32v96c0 17.67 14.33 32 32 32h96c17.67 0 32-14.33 32-32v-16h192v16c0 17.67 14.33 32 32 32h96c17.67 0 32-14.33 32-32v-96c0-17.67-14.33-32-32-32h-16v-192zm-80-112h64v64h-64zm-352 0h64v64h-64zm64 416h-64v-64h64zm352 0h-64v-64h64zm-48-112h-32c-17.67 0-32 14.33-32 32v32h-192v-32c0-17.67-14.33-32-32-32h-32v-192h32c17.67 0 32-14.33 32-32v-32h192v32c0 17.67 14.33 32 32 32h32z"/></svg>